<?xml version="1.0" encoding="UTF-8" standalone="no"?>
<svg width="56px" height="42px" viewBox="0 0 56 42" version="1.1" xmlns="http://www.w3.org/2000/svg" xmlns:xlink="http://www.w3.org/1999/xlink">
    <!-- Generator: Sketch 3.8.3 (29802) - http://www.bohemiancoding.com/sketch -->
    <title>jcode</title>
    <desc>Created with Sketch.</desc>
    <defs></defs>
    <g id="Page-1" stroke="none" stroke-width="1" fill="none" fill-rule="evenodd">
        <g id="jcode">
            <rect id="BG" fill="#262626" x="0.746" y="0.716" width="54.6760753" height="40.884"></rect>
            <polygon id="Path" fill="#9B9B9B" points="35.8980753 23.66 35.8980753 21.5 42.0180753 19.862 42.0180753 19.538 35.8980753 17.9 35.8980753 15.74 43.4220753 17.828 43.4220753 21.572"></polygon>
            <path d="M31.1080377,14.426 C31.1080377,14.6660012 31.0630381,14.890999 30.9730377,15.101 C30.8830372,15.3110011 30.7600385,15.4909993 30.6040377,15.641 C30.4480369,15.7910008 30.2650387,15.9109996 30.0550377,16.001 C29.8450366,16.0910005 29.6260388,16.136 29.3980377,16.136 C29.1580365,16.136 28.9360387,16.0910005 28.7320377,16.001 C28.5280367,15.9109996 28.3480385,15.7910008 28.1920377,15.641 C28.0360369,15.4909993 27.9130381,15.3110011 27.8230377,15.101 C27.7330372,14.890999 27.6880377,14.6660012 27.6880377,14.426 C27.6880377,14.1859988 27.7330372,13.9610011 27.8230377,13.751 C27.9130381,13.540999 28.0360369,13.3610008 28.1920377,13.211 C28.3480385,13.0609993 28.5280367,12.9410005 28.7320377,12.851 C28.9360387,12.7609996 29.1580365,12.716 29.3980377,12.716 C29.6260388,12.716 29.8450366,12.7609996 30.0550377,12.851 C30.2650387,12.9410005 30.4480369,13.0609993 30.6040377,13.211 C30.7600385,13.3610008 30.8830372,13.540999 30.9730377,13.751 C31.0630381,13.9610011 31.1080377,14.1859988 31.1080377,14.426 L31.1080377,14.426 Z" id="Path" fill="#7ED321"></path>
            <path d="M24.8440377,17.072 L30.5680377,17.072 L30.5680377,27.764 C30.5680377,28.3880031 30.4000394,28.8499985 30.0640377,29.15 C29.728036,29.4500015 29.2900404,29.6 28.7500377,29.6 L24.5200377,29.6 L24.5200377,27.44 L27.7600377,27.44 C28.1200395,27.44 28.3000377,27.242002 28.3000377,26.846 L28.3000377,19.232 L24.8440377,19.232 L24.8440377,17.072 Z" id="Path" fill="#7ED321"></path>
            <polygon id="Path" fill="#9B9B9B" points="12.746 21.572 12.746 17.828 20.27 15.74 20.27 17.9 14.15 19.538 14.15 19.862 20.27 21.5 20.27 23.66"></polygon>
        </g>
    </g>
</svg>